<svg width="337" height="49" viewBox="0 0 337 49" fill="none" xmlns="http://www.w3.org/2000/svg">
<rect width="337" height="49" fill="#1E1C1C" fill-opacity="0.01"/>
<rect x="58" y="4.68965" width="279" height="34" fill="#1E1C1C" fill-opacity="0.01"/>
<mask id="mask0_0_1" style="mask-type:luminance" maskUnits="userSpaceOnUse" x="0" y="-1" width="50" height="46">
<path d="M49.7379 -0.942535H0V44.2988H49.7379V-0.942535Z" fill="white"/>
</mask>
<g mask="url(#mask0_0_1)">
<path d="M37.9579 45.2414C44.4876 45.0931 49.738 39.1421 49.738 31.8261C49.738 28.2681 48.4703 24.8558 46.2138 22.34L26.1779 0V13.8858C26.1779 16.208 27.0053 18.4353 28.4781 20.0774L33.1716 25.3108L33.1845 25.3246L41.0543 34.0996C41.3099 34.3845 41.3099 34.8465 41.0543 35.1314C40.7989 35.4164 40.3843 35.4164 40.1289 35.1314L37.4161 32.1068H12.3218L9.60909 35.1314C9.35354 35.4164 8.93917 35.4164 8.68362 35.1314C8.42799 34.8465 8.42799 34.3845 8.68362 34.0996L16.5535 25.3246L16.5663 25.3108L21.2598 20.0774C22.7327 18.4353 23.56 16.208 23.56 13.8858V0L3.52404 22.34C1.26762 24.8558 0 28.2681 0 31.8261C0 39.1421 5.25042 45.0931 11.78 45.2414H37.9579Z" fill="white"/>
</g>
<path d="M59.7109 18.8615V12.7678H88.375V18.8615H77.7344V47.6897H70.375V18.8615H59.7109ZM100.281 32.549V47.6897H93.0156V12.7678H100.047V26.1506H100.375C100.969 24.6037 101.922 23.385 103.234 22.4943C104.562 21.6037 106.219 21.1584 108.203 21.1584C110.922 21.1584 113.109 22.0334 114.766 23.7834C116.422 25.5334 117.25 27.9475 117.25 31.0256V47.6897H110.008V32.3147C110.008 30.6897 109.602 29.4318 108.789 28.5412C107.977 27.635 106.812 27.1818 105.297 27.1818C103.828 27.1818 102.625 27.6584 101.688 28.6115C100.75 29.549 100.281 30.8615 100.281 32.549ZM139.844 36.5568V21.4865H147.109V47.6897H140.125V42.9318H139.844C139.266 44.4631 138.289 45.6975 136.914 46.635C135.555 47.5725 133.891 48.0334 131.922 48.0178C129.281 48.0334 127.141 47.1662 125.5 45.4162C123.875 43.6506 123.062 41.2365 123.062 38.174V21.4865H130.328V36.9084C130.328 38.4397 130.742 39.6584 131.57 40.5647C132.398 41.4553 133.5 41.8928 134.875 41.8772C136.172 41.8928 137.32 41.4475 138.32 40.5412C139.336 39.635 139.844 38.3068 139.844 36.5568ZM152.922 47.6897V21.4865H159.812V26.1506H160.141C160.688 24.6037 161.602 23.385 162.883 22.4943C164.164 21.6037 165.688 21.1584 167.453 21.1584C169.25 21.1584 170.773 21.6115 172.023 22.5178C173.289 23.4084 174.125 24.6193 174.531 26.1506H174.812C175.359 24.635 176.328 23.424 177.719 22.5178C179.125 21.6115 180.789 21.1584 182.711 21.1584C185.148 21.1584 187.133 21.9318 188.664 23.4787C190.211 25.0256 190.984 27.2209 190.984 30.0647V47.6897H183.719V31.5178C183.719 30.049 183.328 28.9553 182.547 28.2365C181.781 27.5178 180.82 27.1584 179.664 27.1584C178.352 27.1584 177.32 27.5803 176.57 28.424C175.836 29.2522 175.469 30.3459 175.469 31.7053V47.6897H168.414V31.3303C168.414 30.0647 168.047 29.0568 167.312 28.3068C166.594 27.5412 165.641 27.1584 164.453 27.1584C163.234 27.1584 162.219 27.6037 161.406 28.4943C160.594 29.3693 160.188 30.5334 160.188 31.9865V47.6897H152.922ZM211.68 48.1115C210.273 48.1115 209.078 47.8772 208.094 47.4084C207.125 46.9397 206.328 46.3537 205.703 45.6506C205.094 44.9318 204.617 44.2131 204.273 43.4943H203.945V47.6897H196.797V12.7678H204.062V25.9162H204.273C204.602 25.1975 205.062 24.4709 205.656 23.7365C206.266 23.0022 207.062 22.3928 208.047 21.9084C209.047 21.4084 210.273 21.1584 211.727 21.1584C213.648 21.1584 215.406 21.6584 217 22.6584C218.609 23.6428 219.898 25.135 220.867 27.135C221.836 29.135 222.32 31.635 222.32 34.635C222.32 37.5412 221.852 40.0022 220.914 42.0178C219.977 44.0178 218.703 45.5334 217.094 46.5647C215.484 47.5959 213.68 48.1115 211.68 48.1115ZM203.898 34.6115C203.898 36.924 204.375 38.7912 205.328 40.2131C206.297 41.635 207.656 42.3459 209.406 42.3459C211.188 42.3459 212.547 41.6272 213.484 40.1897C214.422 38.7365 214.891 36.8772 214.891 34.6115C214.891 32.3303 214.422 30.4787 213.484 29.0568C212.562 27.635 211.203 26.924 209.406 26.924C207.656 26.924 206.297 27.6193 205.328 29.01C204.375 30.4006 203.898 32.2678 203.898 34.6115Z" fill="white"/>
<path d="M243.062 48.1584C239.797 48.1584 236.922 47.4397 234.438 46.0022C231.969 44.549 230.039 42.4865 228.648 39.8147C227.273 37.1272 226.586 33.9475 226.586 30.2756C226.586 26.4943 227.305 23.2678 228.742 20.5959C230.18 17.9084 232.133 15.8537 234.602 14.4318C237.07 13.01 239.844 12.299 242.922 12.299C245.562 12.299 247.945 12.799 250.07 13.799C252.211 14.799 253.961 16.1818 255.32 17.9475C256.695 19.7131 257.539 21.7522 257.852 24.0647H250.375C249.891 22.424 249.023 21.1428 247.773 20.2209C246.523 19.2834 244.945 18.8147 243.039 18.8147C240.367 18.8147 238.203 19.8068 236.547 21.7912C234.891 23.76 234.062 26.5647 234.062 30.2053C234.062 33.8459 234.875 36.6662 236.5 38.6662C238.141 40.6506 240.352 41.6428 243.133 41.6428C245.57 41.6428 247.484 41.01 248.875 39.7443C250.281 38.4631 251.008 36.7365 251.055 34.5647H243.578V29.01H258.203V33.4162C258.203 36.4787 257.555 39.1115 256.258 41.3147C254.961 43.5178 253.172 45.2131 250.891 46.4006C248.609 47.5725 246 48.1584 243.062 48.1584ZM275.523 48.2053C272.836 48.2053 270.523 47.6584 268.586 46.5647C266.648 45.4709 265.156 43.9162 264.109 41.9006C263.062 39.8693 262.539 37.4709 262.539 34.7053C262.539 32.0178 263.055 29.6584 264.086 27.6272C265.133 25.5959 266.602 24.01 268.492 22.8693C270.383 21.7287 272.609 21.1584 275.172 21.1584C277.484 21.1584 279.57 21.6506 281.43 22.635C283.305 23.6193 284.789 25.0959 285.883 27.0647C286.992 29.0334 287.547 31.5022 287.547 34.4709V36.4397H269.688C269.766 38.424 270.344 39.9787 271.422 41.1037C272.5 42.2287 273.906 42.7912 275.641 42.7912C276.844 42.7912 277.875 42.5334 278.734 42.0178C279.609 41.5022 280.234 40.7522 280.609 39.7678L287.312 40.2131C286.797 42.6193 285.508 44.5568 283.445 46.0256C281.398 47.4787 278.758 48.2053 275.523 48.2053ZM269.734 31.9631H280.586C280.414 30.3068 279.883 28.9943 278.992 28.0256C278.102 27.0568 276.852 26.5725 275.242 26.5725C273.617 26.5725 272.328 27.0803 271.375 28.0959C270.438 29.0959 269.891 30.385 269.734 31.9631ZM299.594 32.549V47.6897H292.328V21.4865H299.477V26.1506H299.734C300.328 24.6193 301.273 23.4084 302.57 22.5178C303.867 21.6115 305.484 21.1584 307.422 21.1584C310.156 21.1584 312.344 22.0412 313.984 23.8068C315.641 25.5568 316.469 27.9631 316.469 31.0256V47.6897H309.203V32.3147C309.203 30.7053 308.789 29.4475 307.961 28.5412C307.148 27.635 306.016 27.1818 304.562 27.1818C303.094 27.1818 301.898 27.6584 300.977 28.6115C300.055 29.549 299.594 30.8615 299.594 32.549Z" fill="#D036A9"/>
</svg>
